<svg width="768" height="768" viewBox="0 0 768 768" fill="none" xmlns="http://www.w3.org/2000/svg">
<path d="M689.504 124.896C648.896 84.288 595.616 63.968 542.432 63.936C489.248 63.904 435.968 84.224 395.328 124.832L384 136.192L372.704 124.896C332.096 84.288 278.784 63.968 225.6 63.968C172.416 63.968 119.104 84.288 78.496 124.896C37.888 165.504 17.568 218.816 17.568 272C17.568 325.184 37.888 378.496 78.496 419.104L361.376 701.984C373.888 714.496 394.144 714.496 406.624 701.984L689.504 419.104C730.112 378.496 750.432 325.216 750.464 272.032C750.496 218.848 730.176 165.568 689.504 124.896Z" fill="#F25E6B"/>
</svg>
