<svg width="768" height="768" viewBox="0 0 768 768" fill="none" xmlns="http://www.w3.org/2000/svg">
<path d="M644.256 170.144C672.416 198.336 686.464 235.136 686.464 272.032C686.464 308.928 672.384 345.728 644.256 373.856L384 634.112L123.744 373.856C95.616 345.728 81.568 308.928 81.568 272C81.568 235.072 95.616 198.272 123.744 170.144C151.872 142.016 188.672 127.968 225.6 127.968C262.528 127.968 299.328 142.016 327.456 170.144L361.376 204.064C373.888 216.576 394.144 216.576 406.624 204.064L440.608 170.08C468.736 141.952 505.536 127.904 542.432 127.936C579.328 127.968 616.128 142.016 644.256 170.144ZM689.504 124.896C648.896 84.288 595.616 63.968 542.432 63.936C489.248 63.904 435.968 84.224 395.328 124.832L384 136.192L372.704 124.896C332.096 84.288 278.784 63.968 225.6 63.968C172.416 63.968 119.104 84.288 78.496 124.896C37.888 165.504 17.568 218.816 17.568 272C17.568 325.184 37.888 378.496 78.496 419.104L361.376 701.984C373.888 714.496 394.144 714.496 406.624 701.984L689.504 419.104C730.112 378.496 750.432 325.216 750.464 272.032C750.496 218.848 730.176 165.568 689.504 124.896Z" fill="#F25E6B"/>
</svg>
