<svg width="22" height="22" viewBox="0 0 22 22" fill="none" xmlns="http://www.w3.org/2000/svg">
<path d="M20.5 11C20.5 5.75329 16.2467 1.5 11 1.5C5.75329 1.5 1.5 5.75329 1.5 11C1.5 16.2467 5.75329 20.5 11 20.5V22C4.92487 22 0 17.0751 0 11C0 4.92487 4.92487 0 11 0C17.0751 0 22 4.92487 22 11C22 17.0751 17.0751 22 11 22V20.5C16.2467 20.5 20.5 16.2467 20.5 11Z" fill="#F3BC16"/>
<path d="M8 9.75C8 10.4404 7.44036 11 6.75 11C6.05964 11 5.5 10.4404 5.5 9.75C5.5 9.05964 6.05964 8.5 6.75 8.5C7.44036 8.5 8 9.05964 8 9.75Z" fill="#F3BC16"/>
<path d="M7 9.75C7 9.61193 6.88807 9.5 6.75 9.5C6.61193 9.5 6.5 9.61193 6.5 9.75C6.5 9.88807 6.61193 10 6.75 10V11C6.05964 11 5.5 10.4404 5.5 9.75C5.5 9.05964 6.05964 8.5 6.75 8.5C7.44036 8.5 8 9.05964 8 9.75C8 10.4404 7.44036 11 6.75 11V10C6.88807 10 7 9.88807 7 9.75Z" fill="#F3BC16"/>
<path d="M16.5 9.75C16.5 10.4404 15.9404 11 15.25 11C14.5596 11 14 10.4404 14 9.75C14 9.05964 14.5596 8.5 15.25 8.5C15.9404 8.5 16.5 9.05964 16.5 9.75Z" fill="#F3BC16"/>
<path d="M15.5 9.75C15.5 9.61193 15.3881 9.5 15.25 9.5C15.1119 9.5 15 9.61193 15 9.75C15 9.88807 15.1119 10 15.25 10V11C14.5596 11 14 10.4404 14 9.75C14 9.05964 14.5596 8.5 15.25 8.5C15.9404 8.5 16.5 9.05964 16.5 9.75C16.5 10.4404 15.9404 11 15.25 11V10C15.3881 10 15.5 9.88807 15.5 9.75Z" fill="#F3BC16"/>
<path d="M13.6719 14.625C14.0861 14.625 14.4219 14.9608 14.4219 15.375C14.4219 15.7892 14.0861 16.125 13.6719 16.125H8.32812C7.91391 16.125 7.57812 15.7892 7.57812 15.375C7.57812 14.9608 7.91391 14.625 8.32812 14.625H13.6719Z" fill="#F3BC16"/>
</svg>
