<svg width="22" height="22" viewBox="0 0 22 22" fill="none" xmlns="http://www.w3.org/2000/svg">
<path d="M20.5 11C20.5 5.75329 16.2467 1.5 11 1.5C5.75329 1.5 1.5 5.75329 1.5 11C1.5 16.2467 5.75329 20.5 11 20.5V22C4.92487 22 0 17.0751 0 11C0 4.92487 4.92487 0 11 0C17.0751 0 22 4.92487 22 11C22 17.0751 17.0751 22 11 22V20.5C16.2467 20.5 20.5 16.2467 20.5 11Z" fill="#02BA81"/>
<path d="M8 9.75C8 10.4404 7.44036 11 6.75 11C6.05964 11 5.5 10.4404 5.5 9.75C5.5 9.05964 6.05964 8.5 6.75 8.5C7.44036 8.5 8 9.05964 8 9.75Z" fill="#02BA81"/>
<path d="M16.5 9.75C16.5 10.4404 15.9404 11 15.25 11C14.5596 11 14 10.4404 14 9.75C14 9.05964 14.5596 8.5 15.25 8.5C15.9404 8.5 16.5 9.05964 16.5 9.75Z" fill="#02BA81"/>
<path d="M14.0969 12.5514C14.223 12.1572 14.6449 11.9394 15.0393 12.0651C15.4339 12.1911 15.6515 12.6139 15.5256 13.0085C15.3427 13.5813 15.0541 14.1067 14.6838 14.5612C13.814 15.6285 12.4867 16.3121 11.0002 16.3122C9.51345 16.3122 8.1854 15.6288 7.31563 14.5612C6.94529 14.1066 6.65673 13.5814 6.47383 13.0085C6.34792 12.614 6.56577 12.1912 6.96016 12.0651C7.35465 11.9392 7.77745 12.157 7.90352 12.5514C8.0282 12.9421 8.22472 13.3022 8.47871 13.6139C9.07586 14.3468 9.98354 14.8122 11.0002 14.8122C12.0169 14.8121 12.9246 14.3468 13.5217 13.6139C13.7757 13.3022 13.9722 12.9421 14.0969 12.5514Z" fill="#02BA81"/>
</svg>
