<svg width="22" height="22" viewBox="0 0 22 22" fill="none" xmlns="http://www.w3.org/2000/svg">
<path d="M20.5 11C20.5 5.75329 16.2467 1.5 11 1.5C5.75329 1.5 1.5 5.75329 1.5 11C1.5 16.2467 5.75329 20.5 11 20.5V22C4.92487 22 0 17.0751 0 11C0 4.92487 4.92487 0 11 0C17.0751 0 22 4.92487 22 11C22 17.0751 17.0751 22 11 22V20.5C16.2467 20.5 20.5 16.2467 20.5 11Z" fill="#F38D41"/>
<path d="M8 9.75C8 10.4404 7.44036 11 6.75 11C6.05964 11 5.5 10.4404 5.5 9.75C5.5 9.05964 6.05964 8.5 6.75 8.5C7.44036 8.5 8 9.05964 8 9.75Z" fill="#F38D41"/>
<path d="M16.5 9.75C16.5 10.4404 15.9404 11 15.25 11C14.5596 11 14 10.4404 14 9.75C14 9.05964 14.5596 8.5 15.25 8.5C15.9404 8.5 16.5 9.05964 16.5 9.75Z" fill="#F38D41"/>
<path d="M13.3507 16.081C13.6369 16.3801 14.1109 16.3904 14.4103 16.1045C14.7097 15.8183 14.7208 15.3434 14.4347 15.0439C13.5708 14.1399 12.3507 13.5752 11.0001 13.5752C9.64955 13.5752 8.42947 14.1399 7.56553 15.0439C7.2795 15.3433 7.28984 15.8183 7.58897 16.1045C7.88834 16.3905 8.36333 16.3802 8.64952 16.081C9.24222 15.4607 10.0758 15.0752 11.0001 15.0752C11.9244 15.0752 12.758 15.4607 13.3507 16.081Z" fill="#F38D41"/>
</svg>
