<svg width="22" height="22" viewBox="0 0 22 22" fill="none" xmlns="http://www.w3.org/2000/svg">
<path d="M20.5 11C20.5 5.75329 16.2467 1.5 11 1.5C5.75329 1.5 1.5 5.75329 1.5 11C1.5 16.2467 5.75329 20.5 11 20.5V22C4.92487 22 0 17.0751 0 11C0 4.92487 4.92487 0 11 0C17.0751 0 22 4.92487 22 11C22 17.0751 17.0751 22 11 22V20.5C16.2467 20.5 20.5 16.2467 20.5 11Z" fill="#F25E6B"/>
<path d="M8 9.75C8 10.4404 7.44036 11 6.75 11C6.05964 11 5.5 10.4404 5.5 9.75C5.5 9.05964 6.05964 8.5 6.75 8.5C7.44036 8.5 8 9.05964 8 9.75Z" fill="#F25E6B"/>
<path d="M16.5 9.75C16.5 10.4404 15.9404 11 15.25 11C14.5596 11 14 10.4404 14 9.75C14 9.05964 14.5596 8.5 15.25 8.5C15.9404 8.5 16.5 9.05964 16.5 9.75Z" fill="#F25E6B"/>
<path d="M14.0969 15.791C14.223 16.1852 14.6449 16.403 15.0393 16.2773C15.4339 16.1514 15.6515 15.7285 15.5256 15.3339C15.3427 14.7611 15.0541 14.2357 14.6838 13.7812C13.814 12.7139 12.4867 12.0303 11.0002 12.0302C9.51345 12.0302 8.1854 12.7136 7.31563 13.7812C6.94529 14.2358 6.65673 14.761 6.47383 15.3339C6.34792 15.7284 6.56577 16.1512 6.96016 16.2773C7.35465 16.4032 7.77745 16.1854 7.90352 15.791C8.0282 15.4003 8.22472 15.0402 8.47871 14.7285C9.07586 13.9956 9.98354 13.5302 11.0002 13.5302C12.0169 13.5303 12.9246 13.9956 13.5217 14.7285C13.7757 15.0402 13.9722 15.4003 14.0969 15.791Z" fill="#F25E6B"/>
</svg>
