<svg width="22" height="22" viewBox="0 0 22 22" fill="none" xmlns="http://www.w3.org/2000/svg">
<path d="M20.5 11C20.5 5.75329 16.2467 1.5 11 1.5C5.75329 1.5 1.5 5.75329 1.5 11C1.5 16.2467 5.75329 20.5 11 20.5V22C4.92487 22 0 17.0751 0 11C0 4.92487 4.92487 0 11 0C17.0751 0 22 4.92487 22 11C22 17.0751 17.0751 22 11 22V20.5C16.2467 20.5 20.5 16.2467 20.5 11Z" fill="#F27656"/>
<path d="M8 9.75C8 10.4404 7.44036 11 6.75 11C6.05964 11 5.5 10.4404 5.5 9.75C5.5 9.05964 6.05964 8.5 6.75 8.5C7.44036 8.5 8 9.05964 8 9.75Z" fill="#F27656"/>
<path d="M16.5 9.75C16.5 10.4404 15.9404 11 15.25 11C14.5596 11 14 10.4404 14 9.75C14 9.05964 14.5596 8.5 15.25 8.5C15.9404 8.5 16.5 9.05964 16.5 9.75Z" fill="#F27656"/>
<path d="M13.8045 15.9424C14.0142 16.2995 14.4737 16.4186 14.8308 16.209C15.1879 15.9993 15.3081 15.5398 15.0984 15.1827C14.9754 14.9733 14.8367 14.774 14.6843 14.587C13.8146 13.5194 12.4865 12.836 10.9998 12.836C9.51324 12.836 8.18592 13.5196 7.31618 14.587C7.1638 14.774 7.02508 14.9733 6.90212 15.1827C6.69233 15.5398 6.81164 15.9992 7.16872 16.209C7.52584 16.4188 7.98526 16.2995 8.19509 15.9424C8.27921 15.7992 8.3738 15.6625 8.47829 15.5342C9.07539 14.8013 9.98312 14.336 10.9998 14.336C12.0164 14.336 12.9241 14.8014 13.5213 15.5342C13.6257 15.6624 13.7204 15.7993 13.8045 15.9424Z" fill="#F27656"/>
</svg>
