<svg width="22" height="22" viewBox="0 0 22 22" fill="none" xmlns="http://www.w3.org/2000/svg">
<path d="M20.5 11C20.5 5.75329 16.2467 1.5 11 1.5C5.75329 1.5 1.5 5.75329 1.5 11C1.5 16.2467 5.75329 20.5 11 20.5V22C4.92487 22 0 17.0751 0 11C0 4.92487 4.92487 0 11 0C17.0751 0 22 4.92487 22 11C22 17.0751 17.0751 22 11 22V20.5C16.2467 20.5 20.5 16.2467 20.5 11Z" fill="#3EBB66"/>
<path d="M8 9.75C8 10.4404 7.44036 11 6.75 11C6.05964 11 5.5 10.4404 5.5 9.75C5.5 9.05964 6.05964 8.5 6.75 8.5C7.44036 8.5 8 9.05964 8 9.75Z" fill="#3EBB66"/>
<path d="M16.5 9.75C16.5 10.4404 15.9404 11 15.25 11C14.5596 11 14 10.4404 14 9.75C14 9.05964 14.5596 8.5 15.25 8.5C15.9404 8.5 16.5 9.05964 16.5 9.75Z" fill="#3EBB66"/>
<path d="M13.8045 13.2056C14.0142 12.8486 14.4737 12.7294 14.8308 12.939C15.1879 13.1488 15.3081 13.6083 15.0984 13.9654C14.9754 14.1748 14.8367 14.374 14.6843 14.5611C13.8146 15.6287 12.4865 16.3121 10.9998 16.3121C9.51324 16.312 8.18592 15.6285 7.31618 14.5611C7.1638 14.3741 7.02508 14.1747 6.90212 13.9654C6.69233 13.6083 6.81164 13.1489 7.16872 12.939C7.52584 12.7293 7.98526 12.8486 8.19509 13.2056C8.27921 13.3488 8.3738 13.4856 8.47829 13.6138C9.07539 14.3467 9.98312 14.812 10.9998 14.8121C12.0164 14.8121 12.9241 14.3467 13.5213 13.6138C13.6257 13.4856 13.7204 13.3488 13.8045 13.2056Z" fill="#3EBB66"/>
</svg>
