<svg width="22" height="22" viewBox="0 0 22 22" fill="none" xmlns="http://www.w3.org/2000/svg">
<path d="M20.5 11C20.5 5.75329 16.2467 1.5 11 1.5C5.75329 1.5 1.5 5.75329 1.5 11C1.5 16.2467 5.75329 20.5 11 20.5V22C4.92487 22 0 17.0751 0 11C0 4.92487 4.92487 0 11 0C17.0751 0 22 4.92487 22 11C22 17.0751 17.0751 22 11 22V20.5C16.2467 20.5 20.5 16.2467 20.5 11Z" fill="#B7BC31"/>
<path d="M8 9.75C8 10.4404 7.44036 11 6.75 11C6.05964 11 5.5 10.4404 5.5 9.75C5.5 9.05964 6.05964 8.5 6.75 8.5C7.44036 8.5 8 9.05964 8 9.75Z" fill="#B7BC31"/>
<path d="M16.5 9.75C16.5 10.4404 15.9404 11 15.25 11C14.5596 11 14 10.4404 14 9.75C14 9.05964 14.5596 8.5 15.25 8.5C15.9404 8.5 16.5 9.05964 16.5 9.75Z" fill="#B7BC31"/>
<path d="M13.6357 14.2698C13.9978 14.0688 14.4541 14.1989 14.6553 14.5608C14.8563 14.9228 14.7261 15.3792 14.3642 15.5803C13.3671 16.134 12.2191 16.4495 11 16.4495C9.78087 16.4495 8.6329 16.134 7.63573 15.5803C7.27384 15.3792 7.1437 14.9228 7.34472 14.5608C7.54588 14.1989 8.00222 14.0688 8.36425 14.2698C9.14429 14.7028 10.0423 14.9495 11 14.9495C11.9577 14.9495 12.8557 14.7028 13.6357 14.2698Z" fill="#B7BC31"/>
</svg>
