<svg width="22" height="22" viewBox="0 0 22 22" fill="none" xmlns="http://www.w3.org/2000/svg">
<path d="M20.5 11C20.5 5.75329 16.2467 1.5 11 1.5C5.75329 1.5 1.5 5.75329 1.5 11C1.5 16.2467 5.75329 20.5 11 20.5V22C4.92487 22 0 17.0751 0 11C0 4.92487 4.92487 0 11 0C17.0751 0 22 4.92487 22 11C22 17.0751 17.0751 22 11 22V20.5C16.2467 20.5 20.5 16.2467 20.5 11Z" fill="#7BBB4C"/>
<path d="M8 9.75C8 10.4404 7.44036 11 6.75 11C6.05964 11 5.5 10.4404 5.5 9.75C5.5 9.05964 6.05964 8.5 6.75 8.5C7.44036 8.5 8 9.05964 8 9.75Z" fill="#7BBB4C"/>
<path d="M16.5 9.75C16.5 10.4404 15.9404 11 15.25 11C14.5596 11 14 10.4404 14 9.75C14 9.05964 14.5596 8.5 15.25 8.5C15.9404 8.5 16.5 9.05964 16.5 9.75Z" fill="#7BBB4C"/>
<path d="M13.3507 13.8068C13.6369 13.5077 14.1109 13.4974 14.4103 13.7833C14.7097 14.0695 14.7208 14.5444 14.4347 14.8439C13.5708 15.7479 12.3507 16.3126 11.0001 16.3126C9.64955 16.3126 8.42947 15.7479 7.56553 14.8439C7.2795 14.5445 7.28984 14.0695 7.58897 13.7833C7.88834 13.4973 8.36333 13.5076 8.64952 13.8068C9.24222 14.4271 10.0758 14.8126 11.0001 14.8126C11.9244 14.8126 12.758 14.4271 13.3507 13.8068Z" fill="#7BBB4C"/>
</svg>
