<svg width="22" height="22" viewBox="0 0 22 22" fill="none" xmlns="http://www.w3.org/2000/svg">
<path d="M20.5 11C20.5 5.75329 16.2467 1.5 11 1.5C5.75329 1.5 1.5 5.75329 1.5 11C1.5 16.2467 5.75329 20.5 11 20.5V22C4.92487 22 0 17.0751 0 11C0 4.92487 4.92487 0 11 0C17.0751 0 22 4.92487 22 11C22 17.0751 17.0751 22 11 22V20.5C16.2467 20.5 20.5 16.2467 20.5 11Z" fill="#F3A52B"/>
<path d="M8 9.75C8 10.4404 7.44036 11 6.75 11C6.05964 11 5.5 10.4404 5.5 9.75C5.5 9.05964 6.05964 8.5 6.75 8.5C7.44036 8.5 8 9.05964 8 9.75Z" fill="#F3A52B"/>
<path d="M16.5 9.75C16.5 10.4404 15.9404 11 15.25 11C14.5596 11 14 10.4404 14 9.75C14 9.05964 14.5596 8.5 15.25 8.5C15.9404 8.5 16.5 9.05964 16.5 9.75Z" fill="#F3A52B"/>
<path d="M13.6357 16.3547C13.9978 16.5557 14.4541 16.4256 14.6553 16.0637C14.8563 15.7017 14.7261 15.2453 14.3642 15.0442C13.3671 14.4905 12.2191 14.175 11 14.175C9.78087 14.175 8.6329 14.4905 7.63573 15.0442C7.27384 15.2453 7.1437 15.7017 7.34472 16.0637C7.54588 16.4256 8.00222 16.5557 8.36425 16.3547C9.14429 15.9217 10.0423 15.675 11 15.675C11.9577 15.675 12.8557 15.9217 13.6357 16.3547Z" fill="#F3A52B"/>
</svg>
